<svg width="26" height="36" viewBox="0 0 26 36" version="1.1" xmlns="http://www.w3.org/2000/svg" xmlns:xlink="http://www.w3.org/1999/xlink">
<title>lock</title>
<desc>Created using Figma</desc>
<g id="Canvas" transform="translate(-1206 -1291)">
<clipPath id="clip-0" clip-rule="evenodd">
<path d="M 1206 1291L 1232 1291L 1232 1327L 1206 1327L 1206 1291Z" fill="#FFFFFF"/>
</clipPath>
<g id="lock" clip-path="url(#clip-0)">
<g id="Union">
<use xlink:href="#path0_fill" transform="translate(1206 1291)" fill="#C4C4C4"/>
<use xlink:href="#path1_fill" transform="translate(1206 1291)" fill="#C4C4C4"/>
</g>
</g>
</g>
<defs>
<path id="path0_fill" fill-rule="evenodd" d="M 22 14L 24 14C 25.1046 14 26 14.8954 26 16L 26 32C 26 34.2091 24.2091 36 22 36L 4 36C 1.79089 36 0 34.2091 0 32L 0 16C 0 14.8954 0.895386 14 2 14L 4 14L 4 9C 4 4.02942 8.02942 0 13 0C 17.9706 0 22 4.02942 22 9L 22 14ZM 19 14L 19 9C 19 5.68628 16.3137 3 13 3C 9.68628 3 7 5.68628 7 9L 7 14L 19 14ZM 3 32L 3 17L 23 17L 23 32C 23 32.5522 22.5522 33 22 33L 4 33C 3.44775 33 3 32.5522 3 32Z"/>
<path id="path1_fill" d="M 14.5 25.5986C 15.3967 25.08 16 24.1105 16 23C 16 21.3431 14.6569 20 13 20C 11.3431 20 10 21.3431 10 23C 10 24.1105 10.6033 25.08 11.5 25.5986L 11.5 30L 14.5 30L 14.5 25.5986Z"/>
</defs>
</svg>
